<?xml version="1.0" encoding="UTF-8"?>
<svg id="Layer_2"
    xmlns="http://www.w3.org/2000/svg" viewBox="0 0 528.31 592.48">
    <defs>
        <style>.cls-1{fill:#ee7aa2;}.cls-2{fill:none;}.cls-2,.cls-3{stroke:#28292b;stroke-miterlimit:10;stroke-width:6.5px;}.cls-4{fill:#f49e66;}.cls-5{fill:#aa83ba;}.cls-3{fill:#fff;}.cls-6{fill:#83a8b7;}</style>
    </defs>
    <g id="Calender">
        <path class="cls-3" d="m452.5,90.51v229.11c-17.38-6.97-36.35-10.8-56.2-10.8-41.83,0-79.75,17.02-107.23,44.49-27.47,27.47-44.49,65.4-44.49,107.23,0,19.84,3.83,38.81,10.8,56.2H26.28c-12.72,0-23.03-10.31-23.03-23.02V90.51c0-12.72,10.31-23.03,23.03-23.03h46.21v64.23h37.92v-64.23h234.93v64.23h37.92v-64.23h46.22c12.71,0,23.02,10.31,23.02,23.03Z"/>
        <rect class="cls-3" x="72.49" y="3.25" width="37.92" height="128.46"/>
        <rect class="cls-3" x="345.34" y="3.25" width="37.92" height="128.46"/>
        <rect class="cls-1" x="39.88" y="150.27" width="375.99" height="60.74"/>
        <path class="cls-4" d="m415.86,241.85v46.24c-9.33-1.53-18.81-2.3-28.39-2.3-26.31,0-51.74,5.8-74.85,16.8H39.88v-60.74h375.98Z"/>
        <path class="cls-6" d="m267.68,333.42c-1.25,1.19-2.49,2.39-3.71,3.61-16.64,16.64-29.52,36.03-38.2,57.13H39.88v-60.74h227.8Z"/>
        <path class="cls-5" d="m212.73,460.53c0,8.5.6,16.91,1.8,25.21H39.88v-60.74h176.45c-2.39,11.57-3.61,23.46-3.61,35.53Z"/>
    </g>
    <g id="Clock">
        <path class="cls-3" d="m525.06,460.53c0,71.08-57.62,128.7-128.7,128.7-50.92,0-94.94-29.58-115.8-72.5-8.25-16.98-12.88-36.05-12.88-56.2,0-35.53,14.4-67.71,37.69-91,23.29-23.29,55.46-37.69,91-37.69,20.15,0,39.22,4.63,56.2,12.88,42.91,20.86,72.5,64.88,72.5,115.8Z"/>
        <line class="cls-2" x1="396.37" y1="460.54" x2="396.37" y2="374.53"/>
        <line class="cls-2" x1="393.97" y1="460.54" x2="436.97" y2="460.54"/>
    </g>
</svg>