<?xml version="1.0" standalone="no"?>
<!DOCTYPE svg PUBLIC "-//W3C//DTD SVG 20010904//EN"
 "http://www.w3.org/TR/2001/REC-SVG-20010904/DTD/svg10.dtd">
<svg version="1.0" xmlns="http://www.w3.org/2000/svg"
 width="200.000000pt" height="200.000000pt" viewBox="0 0 200.000000 200.000000"
 preserveAspectRatio="xMidYMid meet">

<g transform="translate(0.000000,200.000000) scale(0.100000,-0.100000)"
fill="#000000" stroke="none">
<path d="M872 1929 c-198 -25 -374 -111 -521 -253 -125 -121 -206 -253 -258
-423 -25 -81 -27 -102 -27 -258 -1 -148 2 -180 22 -250 93 -321 334 -564 657
-661 82 -25 104 -27 255 -27 151 0 173 2 255 27 323 97 564 340 657 661 20 69
23 102 23 250 0 184 -8 227 -68 370 -71 171 -236 356 -398 448 -181 102 -391
143 -597 116z m73 -190 c7 -20 -10 -59 -25 -59 -13 0 -13 17 0 25 16 10 12 22
-10 28 -11 3 -20 12 -20 20 0 21 48 9 55 -14z m81 -2 c-3 -12 -2 -40 1 -64 5
-37 9 -43 29 -43 19 0 24 5 24 24 0 14 4 36 9 49 8 19 6 27 -5 31 -8 3 -14 12
-14 20 0 12 5 13 23 7 12 -5 20 -15 19 -23 -3 -10 -10 -87 -12 -130 0 -12
-118 -9 -125 3 -4 6 3 13 15 16 22 6 23 17 4 115 -5 23 -3 26 16 21 16 -4 20
-11 16 -26z m174 1 c0 -5 -7 -16 -15 -24 -8 -9 -15 -33 -15 -54 0 -37 2 -40
34 -46 44 -8 54 -1 62 42 9 48 -7 63 -36 34 -34 -34 -35 -16 -2 21 26 29 32
31 46 20 20 -17 20 -60 0 -111 -17 -42 -22 -44 -87 -34 l-38 7 5 81 c2 44 5
82 5 83 3 6 41 -11 41 -19z m-351 -7 c6 -10 14 -44 17 -75 8 -64 5 -67 -72
-69 -53 -2 -51 -5 -68 108 -5 40 -5 41 26 43 18 2 34 5 37 7 12 12 51 3 60
-14z m301 -208 c120 -33 222 -105 296 -209 65 -91 95 -177 101 -289 10 -165
-43 -303 -161 -420 -220 -218 -552 -218 -772 0 -217 217 -218 560 -3 776 145
146 342 197 539 142z m-584 -1138 c-9 -14 -24 -25 -34 -25 -16 1 -16 1 1 14
20 15 22 33 5 38 -7 3 -9 12 -5 22 6 16 8 16 28 -3 21 -19 21 -21 5 -46z m919
45 c3 -6 -1 -17 -9 -26 -27 -26 -19 -52 19 -68 19 -8 35 -22 35 -30 0 -21 -1
-21 -70 14 -54 27 -60 28 -60 12 0 -10 11 -29 26 -43 23 -22 24 -24 8 -36 -21
-15 -38 -17 -29 -3 3 5 -2 21 -11 35 -9 14 -14 34 -11 46 4 15 -1 27 -16 40
-33 27 -14 33 31 10 l41 -21 6 21 c4 11 2 26 -5 34 -9 10 -7 14 7 18 29 8 32
7 38 -3z m-649 -24 c3 -8 1 -23 -5 -34 -9 -17 -7 -21 12 -26 12 -3 32 -6 43
-6 12 0 24 -7 28 -15 10 -26 -6 -75 -28 -86 -11 -6 -31 -23 -43 -37 -23 -27
-23 -27 -23 -4 0 15 11 29 35 43 52 31 48 63 -7 75 -35 8 -42 13 -40 29 1 11
3 32 3 48 0 29 16 37 25 13z m-128 -39 c5 -7 5 -25 0 -44 -6 -24 -17 -34 -44
-43 -19 -7 -38 -18 -41 -26 -5 -14 -33 -20 -33 -7 0 14 34 43 51 43 21 0 49
26 49 44 0 7 -20 21 -45 30 -43 17 -52 26 -39 38 8 8 91 -21 102 -35z m622
-16 c0 -16 7 -45 16 -66 8 -21 12 -45 8 -54 -5 -11 -13 4 -28 50 l-21 66 -34
-9 c-36 -10 -35 -2 -16 -100 11 -54 -10 -48 -24 6 -6 25 -11 54 -11 65 0 12
-4 21 -10 21 -5 0 -10 6 -10 13 0 11 55 28 118 35 7 1 12 -10 12 -27z m-551
-15 c-2 -42 -24 -119 -36 -123 -8 -3 -7 12 4 53 13 53 13 59 -2 70 -22 16 -11
34 15 27 13 -3 20 -13 19 -27z m-190 -57 c-24 -71 -26 -75 -35 -66 -7 7 24
106 39 125 18 23 17 6 -4 -59z m589 -12 c10 -67 9 -88 -3 -75 -3 3 -8 29 -12
57 -4 35 -12 55 -23 61 -15 8 -23 -2 -54 -65 l-37 -75 -44 0 -44 0 -11 58 c-6
31 -13 69 -16 85 -6 30 -2 32 27 17 15 -9 17 -14 7 -29 -7 -11 -8 -32 -3 -57
l7 -39 23 50 c13 30 18 53 12 56 -16 11 2 27 23 22 19 -5 29 -33 12 -33 -7 0
-52 -82 -52 -95 0 -3 11 -5 24 -5 19 0 31 12 54 53 16 28 26 54 21 55 -5 2 -9
10 -9 19 0 10 6 12 20 8 11 -3 20 -2 20 3 0 5 11 7 24 5 21 -4 25 -13 34 -76z"/>
<path d="M771 1713 c-21 -4 -23 -8 -18 -49 2 -25 7 -47 10 -50 3 -4 24 -3 46
1 34 6 41 11 41 30 0 13 -4 35 -10 49 -9 26 -19 28 -69 19z"/>
<path d="M925 1427 c-76 -31 -125 -96 -125 -166 0 -18 -4 -40 -9 -49 -5 -9
-25 -133 -46 -274 -28 -202 -34 -262 -25 -279 49 -90 475 -97 555 -9 17 19 16
31 -20 287 -21 148 -42 272 -46 278 -5 5 -9 25 -9 44 0 52 -37 118 -81 148
-45 30 -145 40 -194 20z m163 -47 c37 -23 72 -75 72 -107 0 -38 -51 -56 -155
-56 -108 -1 -165 19 -165 55 0 33 35 85 72 108 45 27 131 27 176 0z m-84 -200
c50 1 108 7 129 14 20 8 40 10 42 5 3 -4 22 -123 42 -263 42 -292 46 -273 -52
-298 -64 -16 -264 -16 -332 1 -92 23 -91 13 -49 301 19 138 38 255 41 260 3 5
24 2 47 -6 24 -8 77 -14 132 -14z"/>
<path d="M982 1368 c7 -19 38 -22 38 -4 0 10 -9 16 -21 16 -12 0 -19 -5 -17
-12z"/>
<path d="M903 1338 c2 -7 10 -13 17 -13 7 0 15 6 18 13 2 7 -5 12 -18 12 -13
0 -20 -5 -17 -12z"/>
<path d="M1063 1338 c2 -7 10 -13 17 -13 7 0 15 6 18 13 2 7 -5 12 -18 12 -13
0 -20 -5 -17 -12z"/>
<path d="M983 1308 c2 -7 10 -13 17 -13 7 0 15 6 18 13 2 7 -5 12 -18 12 -13
0 -20 -5 -17 -12z"/>
<path d="M865 1128 c-4 -14 -35 -369 -35 -405 0 -14 6 -23 15 -23 8 0 17 10
19 23 10 47 36 398 31 407 -9 14 -25 12 -30 -2z"/>
<path d="M1106 1132 c-5 -9 20 -364 30 -409 2 -13 11 -23 19 -23 19 0 19 33
-3 259 -16 161 -27 203 -46 173z"/>
<path d="M985 1118 c-3 -7 -4 -108 -3 -223 3 -179 5 -210 18 -210 13 0 15 31
15 219 0 167 -3 220 -12 223 -7 3 -15 -1 -18 -9z"/>
</g>
</svg>
